<svg id="svg" version="1.1" width="400" height="400" viewBox="0 0 400 400" xmlns="http://www.w3.org/2000/svg" xmlns:xlink="http://www.w3.org/1999/xlink"><g id="svgg"><path id="path0" d="M96.841 55.582 C 96.586 55.977,96.131 56.946,95.829 57.735 C 95.528 58.525,94.665 60.606,93.913 62.360 C 91.922 67.002,91.112 70.193,91.362 72.407 C 91.621 74.694,91.401 74.907,86.938 76.701 C 83.120 78.236,78.592 81.169,77.078 83.089 C 76.527 83.788,75.144 85.387,74.003 86.642 C 68.886 92.273,66.040 101.223,66.508 110.212 C 66.763 115.107,66.674 115.276,63.584 115.821 C 61.089 116.260,60.811 116.465,60.862 117.828 C 61.001 121.503,65.502 125.903,71.396 128.121 C 72.928 128.698,74.116 129.501,76.169 131.350 C 86.283 140.460,87.384 142.190,85.654 146.260 C 84.584 148.780,84.653 149.097,86.943 152.153 C 91.140 157.757,91.174 158.315,87.658 164.177 C 85.144 168.369,85.161 168.536,88.542 173.054 C 91.233 176.649,91.218 176.556,89.679 179.763 C 88.099 183.057,88.069 183.539,89.331 185.359 C 92.275 189.600,91.988 188.698,92.401 195.032 C 92.878 202.361,92.913 207.209,92.496 207.989 C 92.316 208.325,89.984 209.883,87.313 211.450 C 78.727 216.488,77.953 217.926,80.384 224.322 C 81.268 226.649,81.192 227.490,79.846 230.270 C 78.014 234.053,78.022 235.614,79.892 238.437 L 81.371 240.670 81.165 243.700 L 80.960 246.730 82.027 248.129 C 84.094 250.839,84.207 251.102,84.209 253.200 C 84.211 255.474,84.650 256.715,86.084 258.497 C 87.397 260.129,87.403 260.070,85.037 268.144 C 77.613 293.478,73.040 316.805,73.048 329.300 C 73.052 335.586,73.860 335.866,75.932 330.298 C 78.695 322.874,82.339 316.108,83.574 316.108 C 84.295 316.108,84.282 316.042,85.166 324.083 C 85.877 330.556,87.777 340.752,88.425 341.578 C 88.651 341.866,89.195 342.389,89.633 342.741 C 93.614 345.936,98.931 351.457,99.257 352.732 C 99.717 354.538,100.466 354.978,103.707 355.349 C 105.177 355.518,106.852 355.792,107.429 355.959 C 109.260 356.489,115.062 356.000,117.136 355.141 C 121.471 353.346,130.151 354.569,141.143 358.523 C 146.666 360.510,146.684 360.510,148.774 358.533 C 150.763 356.651,151.752 356.515,155.683 357.580 C 161.471 359.148,166.748 360.037,180.383 361.741 C 184.593 362.267,188.684 362.902,189.474 363.150 C 193.472 364.410,194.293 364.188,195.306 361.572 C 196.309 358.983,196.441 358.935,200.605 359.629 C 208.541 360.953,223.518 359.174,234.349 355.621 C 238.486 354.264,238.903 354.635,238.912 359.690 C 238.917 362.334,239.300 362.624,241.523 361.669 C 244.359 360.450,253.006 355.333,255.548 353.370 C 257.569 351.809,258.944 352.352,259.479 354.922 C 259.952 357.194,260.383 357.131,264.452 354.192 C 271.907 348.810,276.709 346.141,278.244 346.526 C 278.662 346.631,280.212 347.953,281.687 349.464 C 286.204 354.089,290.480 357.257,292.204 357.257 C 295.866 357.257,303.817 347.579,307.278 338.910 C 309.106 334.329,310.179 329.792,311.825 319.680 C 312.432 315.955,314.502 319.348,317.391 328.803 C 319.379 335.307,319.736 335.562,320.600 331.092 C 322.126 323.200,320.128 304.656,315.785 286.388 C 313.867 278.319,313.648 278.941,319.617 275.512 C 323.853 273.079,324.747 272.234,326.788 268.740 C 328.836 265.233,329.934 264.182,335.124 260.760 C 339.498 257.877,339.686 257.706,341.760 254.731 C 345.265 249.704,345.283 249.603,343.840 243.324 C 343.304 240.987,342.512 237.448,342.081 235.460 C 340.948 230.234,340.013 228.708,337.943 228.708 C 334.568 228.708,332.368 231.372,331.631 236.352 C 330.897 241.310,330.456 240.910,326.788 231.953 C 323.970 225.072,318.119 225.616,316.740 232.887 C 316.342 234.986,316.333 234.994,314.977 234.347 C 309.570 231.769,306.732 236.979,309.276 244.817 C 310.856 249.688,310.261 255.208,308.235 254.466 C 308.116 254.422,307.483 252.879,306.829 251.037 C 303.912 242.812,303.677 242.262,302.712 241.388 C 301.936 240.684,301.438 240.510,300.197 240.510 C 296.350 240.510,294.924 244.085,295.909 251.256 C 296.599 256.274,296.451 256.437,290.710 256.970 L 288.511 257.175 286.919 255.541 C 286.043 254.643,284.107 253.082,282.616 252.073 C 279.083 249.684,278.422 248.362,274.983 236.816 C 270.905 223.127,271.055 223.902,271.809 220.365 C 275.120 204.843,275.104 204.736,268.639 199.896 C 264.704 196.950,264.185 196.442,263.027 194.417 C 262.291 193.130,260.775 191.230,259.444 189.928 C 256.698 187.240,256.686 187.203,256.827 181.579 L 256.938 177.165 259.233 174.149 C 264.533 167.184,264.546 167.794,258.736 150.856 C 254.718 139.142,254.783 136.662,259.497 121.850 C 261.563 115.360,261.702 115.622,251.692 107.177 C 249.508 105.335,245.273 101.476,242.282 98.602 C 226.014 82.975,215.349 78.599,200.266 81.363 C 193.789 82.550,190.019 84.074,174.811 91.651 C 160.141 98.960,160.491 98.224,166.255 109.624 C 171.458 119.917,171.366 117.390,166.992 129.901 C 162.882 141.656,163.142 141.159,158.190 146.730 C 147.139 159.166,146.919 160.084,153.349 166.885 C 156.878 170.617,156.850 170.985,152.951 172.251 C 147.957 173.872,145.942 175.388,144.238 178.807 C 143.060 181.169,143.147 181.096,138.883 183.292 C 134.885 185.352,129.236 189.103,128.099 190.455 C 126.143 192.779,126.351 200.024,128.612 208.360 L 129.280 210.820 127.298 217.086 C 122.661 231.754,121.698 232.796,120.736 224.182 C 120.475 221.847,120.260 219.084,120.258 218.043 C 120.250 212.722,114.162 208.277,109.965 210.526 C 107.014 212.108,106.999 212.059,106.524 199.486 L 106.124 188.924 107.767 186.078 C 109.788 182.577,109.788 182.484,107.781 178.238 C 105.828 174.105,105.807 174.275,108.794 169.823 C 111.994 165.055,112.001 165.293,108.460 159.477 C 106.508 156.271,106.511 156.191,108.760 152.234 C 110.580 149.033,110.759 147.784,109.722 145.499 C 108.654 143.147,109.082 141.715,111.931 138.098 C 115.084 134.097,116.159 133.665,119.389 135.106 C 124.052 137.187,124.978 136.828,124.416 133.161 C 124.255 132.115,124.028 130.030,123.911 128.527 L 123.698 125.794 125.147 123.104 C 126.754 120.123,128.658 115.116,129.024 112.913 C 129.313 111.171,129.564 110.655,131.127 108.600 C 132.732 106.491,133.778 104.139,134.628 100.726 C 135.854 95.807,135.018 94.559,131.588 96.182 C 128.478 97.653,127.935 97.515,126.911 94.993 C 123.187 85.819,116.166 78.862,107.974 76.230 C 105.175 75.331,105.094 75.263,104.441 73.261 C 104.145 72.353,103.357 70.163,102.690 68.393 C 102.023 66.624,101.097 63.466,100.631 61.376 C 99.271 55.263,98.150 53.551,96.841 55.582 M103.410 87.602 C 112.890 90.388,117.385 97.348,117.492 109.410 C 117.622 124.126,97.483 132.703,85.557 123.010 C 68.837 109.420,82.880 81.570,103.410 87.602 M95.959 95.685 C 91.724 97.984,89.835 106.630,92.236 112.726 C 94.873 119.424,99.620 120.111,102.807 114.256 C 107.386 105.842,102.360 92.210,95.959 95.685 M217.178 131.425 C 220.561 132.961,221.836 134.699,220.904 136.503 C 219.189 139.818,214.294 139.447,212.516 135.866 C 210.749 132.310,213.452 129.735,217.178 131.425 M241.863 132.849 C 242.559 136.491,239.820 139.185,237.827 136.818 C 236.792 135.587,236.781 134.601,237.790 133.402 C 239.483 131.391,241.531 131.112,241.863 132.849 M319.303 171.860 C 319.300 172.787,319.083 174.061,318.820 174.690 C 318.254 176.045,318.224 176.396,318.677 176.396 C 319.619 176.396,320.369 171.817,319.617 170.654 C 319.396 170.312,319.307 170.655,319.303 171.860 M309.127 186.759 C 304.439 191.144,304.355 199.496,308.953 203.987 C 312.513 207.465,313.485 209.914,313.092 214.419 C 312.804 217.713,312.546 218.511,311.191 220.285 C 308.820 223.391,310.962 224.582,314.520 222.135 C 318.546 219.365,319.741 219.173,321.317 221.045 C 324.483 224.809,327.635 215.449,325.031 210.014 C 323.892 207.637,321.096 205.141,317.388 203.191 C 310.609 199.628,308.869 195.507,310.874 187.769 C 311.558 185.130,311.132 184.884,309.127 186.759 " stroke="none" fill="#241a30" fill-rule="evenodd"></path><path id="path1" d="M99.635 28.889 C 111.727 31.970,117.338 44.095,111.452 54.424 C 106.825 62.542,108.741 69.383,117.010 74.276 C 120.251 76.194,121.260 77.004,123.906 79.809 C 127.922 84.065,129.411 82.469,127.115 76.370 C 125.893 73.122,126.757 72.799,130.302 75.177 C 143.698 84.163,146.242 103.989,135.535 115.949 C 130.667 121.387,128.201 127.313,129.501 130.451 C 130.220 132.188,131.338 131.795,133.427 129.072 C 134.533 127.629,134.840 127.621,135.423 129.017 C 137.759 134.607,132.707 144.006,125.435 147.600 C 121.427 149.581,118.423 149.146,120.232 146.847 C 121.015 145.851,121.085 144.735,120.400 144.167 C 118.564 142.643,112.255 145.929,111.302 148.905 C 111.095 149.551,110.287 151.226,109.507 152.627 C 107.468 156.288,107.467 156.266,109.712 159.968 C 112.857 165.155,112.850 165.290,109.141 170.928 C 106.791 174.501,106.816 174.114,108.671 178.116 C 110.592 182.260,110.593 182.905,108.685 186.160 L 107.177 188.732 107.177 193.329 C 107.177 199.180,107.766 209.646,108.114 209.995 C 108.260 210.142,108.796 210.046,109.305 209.783 C 114.636 207.027,121.186 212.170,121.220 219.139 C 121.239 223.005,121.906 227.432,122.470 227.432 C 123.231 227.432,127.954 213.389,127.995 211.005 C 128.011 210.128,127.630 207.687,127.151 205.582 C 126.122 201.068,125.692 194.299,126.294 192.088 C 126.938 189.728,131.646 186.044,138.537 182.511 C 142.413 180.523,142.431 180.509,143.564 178.263 C 145.339 174.747,147.280 173.259,152.209 171.637 C 155.433 170.577,155.445 170.477,152.701 167.498 C 146.024 160.247,146.311 158.843,156.900 146.961 C 161.928 141.318,162.396 140.600,163.932 136.171 C 164.687 133.996,166.306 129.362,167.532 125.874 C 169.005 121.678,169.703 119.247,169.592 118.694 C 169.404 117.753,166.088 110.814,163.632 106.220 C 159.664 98.799,160.223 98.044,175.262 90.525 C 193.451 81.432,199.962 79.383,209.224 79.837 C 220.874 80.408,229.397 85.067,243.561 98.610 C 246.379 101.304,250.026 104.657,251.665 106.061 C 263.014 115.779,262.548 114.778,259.812 123.579 C 255.686 136.851,255.657 139.415,259.500 150.558 C 265.421 167.724,265.414 167.415,260.045 174.396 L 257.895 177.193 257.792 182.092 L 257.689 186.991 260.221 189.588 C 261.613 191.016,263.118 192.903,263.564 193.780 C 264.512 195.640,265.467 196.570,269.378 199.441 C 275.539 203.964,275.824 205.219,273.355 216.906 C 272.817 219.450,272.299 221.969,272.202 222.505 C 272.017 223.530,272.695 226.159,276.227 238.118 C 279.060 247.711,279.793 249.085,283.413 251.579 C 284.992 252.667,286.790 254.138,287.409 254.849 C 288.431 256.022,288.674 256.140,290.062 256.140 C 293.085 256.140,293.553 255.220,291.418 253.471 C 282.307 246.005,281.512 233.639,289.319 220.803 C 290.702 218.528,292.201 220.195,292.413 224.242 C 292.664 229.030,292.713 229.039,295.833 224.865 C 301.278 217.584,299.793 208.358,292.982 207.156 C 286.070 205.936,282.014 195.986,284.790 187.062 C 287.405 178.656,297.085 169.808,297.148 175.766 C 297.173 178.158,297.213 178.309,297.825 178.309 C 298.508 178.309,302.627 175.164,304.148 173.482 C 309.613 167.432,305.734 158.861,297.524 158.849 C 291.596 158.839,287.414 153.550,287.404 146.046 C 287.392 137.365,293.426 129.634,303.030 126.026 C 313.859 121.957,313.615 103.822,302.704 101.753 C 300.020 101.244,300.058 99.707,302.793 98.126 C 315.044 91.044,329.874 106.841,325.802 122.634 C 324.919 126.060,323.575 128.104,319.607 132.057 C 312.084 139.552,312.821 147.636,321.415 151.874 C 325.896 154.083,328.442 157.080,329.847 161.799 C 330.518 164.052,330.945 164.384,331.919 163.410 C 333.700 161.630,333.930 157.881,332.462 154.569 C 331.304 151.958,331.385 151.515,333.016 151.515 C 335.556 151.515,339.807 154.574,341.996 157.976 C 346.811 165.462,344.107 177.528,337.161 179.556 C 331.604 181.179,328.494 185.831,329.782 190.595 C 331.842 198.217,340.755 198.397,341.292 190.827 C 341.534 187.411,342.112 187.335,345.084 190.327 C 354.803 200.112,354.349 218.298,344.198 225.823 C 341.367 227.922,341.063 228.641,341.927 231.203 C 342.288 232.276,342.584 233.413,342.584 233.730 C 342.584 234.047,343.001 236.025,343.511 238.126 C 346.299 249.615,346.306 249.440,342.823 254.586 L 340.285 258.336 335.350 261.580 C 330.095 265.034,329.616 265.517,327.056 269.934 C 325.293 272.977,324.219 273.911,319.347 276.648 C 314.671 279.274,314.827 278.809,316.420 285.376 C 321.035 304.392,323.049 324.835,321.119 333.057 C 320.086 337.457,318.696 337.440,317.719 333.014 C 316.603 327.957,313.494 319.871,312.896 320.469 C 312.736 320.629,312.243 322.719,311.801 325.113 C 309.317 338.562,305.698 346.489,298.769 353.667 C 292.793 359.857,290.979 359.579,282.428 351.163 C 279.258 348.044,278.404 347.368,277.630 347.368 C 276.173 347.368,268.297 352.129,263.636 355.826 C 260.729 358.133,259.662 358.101,258.860 355.687 C 258.087 353.359,257.777 353.231,255.943 354.484 C 249.885 358.621,240.431 363.538,239.253 363.164 C 238.288 362.857,237.959 361.766,237.959 358.870 C 237.959 355.388,237.875 355.348,233.537 356.750 C 221.536 360.630,208.736 362.041,200.309 360.413 C 197.210 359.814,196.821 359.985,195.876 362.360 L 195.052 364.434 193.652 364.534 C 192.882 364.589,190.443 364.338,188.231 363.976 C 186.020 363.614,181.268 362.957,177.671 362.516 C 166.944 361.199,160.319 360.028,155.184 358.541 C 151.664 357.522,150.792 357.635,149.068 359.334 C 146.973 361.399,146.994 361.400,139.516 358.871 C 128.718 355.217,121.462 354.217,117.678 355.859 C 114.992 357.024,109.379 357.281,104.281 356.472 C 100.100 355.808,99.194 355.309,98.557 353.314 C 98.134 351.991,97.389 351.154,92.823 346.871 C 89.936 344.163,87.453 341.624,87.305 341.229 C 86.484 339.037,83.892 323.217,83.892 320.398 C 83.892 318.655,83.348 317.547,82.740 318.051 C 81.846 318.794,78.271 326.349,76.566 331.100 C 70.998 346.620,70.722 327.478,76.114 299.681 C 77.760 291.198,81.903 275.318,85.476 263.796 C 86.399 260.822,86.325 259.949,85.018 258.385 C 83.728 256.841,83.258 255.390,83.255 252.944 C 83.254 251.355,83.114 250.998,81.821 249.276 C 80.124 247.016,79.857 245.923,80.368 243.327 C 80.746 241.406,80.740 241.376,79.712 239.754 C 76.954 235.405,76.915 233.514,79.491 229.148 C 80.315 227.751,80.299 226.675,79.416 224.226 C 78.435 221.506,78.372 218.214,79.266 216.432 C 80.015 214.940,80.942 214.248,86.922 210.718 C 92.766 207.268,92.378 208.288,91.756 198.009 L 91.255 189.718 89.328 186.865 C 87.043 183.483,87.018 183.203,88.700 179.856 C 90.276 176.723,90.277 176.728,87.431 172.927 C 84.178 168.585,84.178 168.455,87.397 162.997 C 90.093 158.427,90.096 158.252,87.544 154.386 C 85.439 151.197,84.519 150.441,83.037 150.680 C 76.440 151.743,72.760 150.314,74.739 147.457 C 77.593 143.340,73.272 138.124,66.269 137.233 C 56.067 135.934,50.347 123.555,54.322 111.377 C 54.971 109.390,55.502 107.433,55.502 107.031 C 55.502 105.337,56.442 105.324,57.895 106.999 C 60.834 110.388,60.709 103.927,57.747 99.380 C 52.371 91.129,53.193 81.668,59.843 75.242 C 60.821 74.298,62.193 72.763,62.892 71.831 C 65.782 67.981,67.292 73.010,64.824 78.265 C 63.315 81.478,63.500 83.609,65.440 85.367 C 70.543 89.991,78.264 83.398,75.398 76.865 C 72.441 70.125,75.950 62.770,84.372 58.054 C 88.666 55.650,90.205 54.189,91.838 50.969 C 95.525 43.694,93.524 36.016,87.826 35.581 C 86.978 35.516,86.104 35.450,85.885 35.435 C 84.968 35.370,85.519 33.750,86.994 32.173 C 90.091 28.862,94.765 27.648,99.635 28.889 M125.801 54.574 C 129.145 57.204,127.593 62.839,123.524 62.839 C 120.216 62.839,118.356 58.421,120.466 55.578 C 121.768 53.824,124.253 53.356,125.801 54.574 M89.314 94.775 C 85.348 96.348,83.664 102.711,87.214 102.711 C 88.811 102.711,92.504 98.280,92.504 96.363 C 92.504 94.879,90.973 94.117,89.314 94.775 M294.686 107.101 C 298.515 108.880,298.297 115.110,294.338 117.027 C 290.689 118.793,287.121 116.701,286.826 112.623 C 286.485 107.916,290.447 105.133,294.686 107.101 M333.427 138.123 C 335.527 139.775,335.103 143.500,332.701 144.495 C 330.056 145.591,327.299 142.693,328.248 139.816 C 328.936 137.732,331.757 136.810,333.427 138.123 M332.057 207.014 C 332.057 207.363,332.362 208.757,332.733 210.112 C 333.561 213.129,333.439 215.977,332.376 218.438 C 331.500 220.465,331.782 221.057,333.259 220.294 C 337.571 218.064,338.326 210.353,334.542 207.170 C 333.375 206.187,332.057 206.105,332.057 207.014 " stroke="none" fill="#d0d2d6" fill-rule="evenodd"></path><path id="path2" d="M92.663 28.839 C 90.289 29.427,88.674 30.376,86.994 32.173 C 85.519 33.750,84.968 35.370,85.885 35.435 C 86.104 35.450,86.978 35.516,87.826 35.581 C 93.524 36.016,95.525 43.694,91.838 50.969 C 90.205 54.189,88.666 55.650,84.372 58.054 C 75.950 62.770,72.441 70.125,75.398 76.865 C 78.264 83.398,70.543 89.991,65.440 85.367 C 63.500 83.609,63.315 81.478,64.824 78.265 C 67.292 73.010,65.782 67.981,62.892 71.831 C 62.193 72.763,60.821 74.298,59.843 75.242 C 53.193 81.668,52.371 91.129,57.747 99.380 C 60.709 103.927,60.834 110.388,57.895 106.999 C 56.442 105.324,55.502 105.337,55.502 107.031 C 55.502 107.433,54.971 109.390,54.322 111.377 C 50.347 123.555,56.067 135.934,66.269 137.233 C 73.272 138.124,77.593 143.340,74.739 147.457 C 72.760 150.314,76.440 151.743,83.037 150.680 C 84.519 150.441,85.439 151.197,87.544 154.386 C 90.096 158.252,90.093 158.427,87.397 162.997 C 84.178 168.455,84.178 168.585,87.431 172.927 C 90.277 176.728,90.276 176.723,88.700 179.856 C 87.018 183.203,87.043 183.483,89.328 186.865 L 91.255 189.718 91.756 198.009 C 92.378 208.288,92.766 207.268,86.922 210.718 C 80.942 214.248,80.015 214.940,79.266 216.432 C 78.372 218.214,78.435 221.506,79.416 224.226 C 80.299 226.675,80.315 227.751,79.491 229.148 C 76.915 233.514,76.954 235.405,79.712 239.754 C 80.740 241.376,80.746 241.406,80.368 243.327 C 79.857 245.923,80.124 247.016,81.821 249.276 C 83.114 250.998,83.254 251.355,83.255 252.944 C 83.258 255.390,83.728 256.841,85.018 258.385 C 86.325 259.949,86.399 260.822,85.476 263.796 C 80.508 279.814,77.038 293.940,74.664 307.815 C 71.884 324.058,71.457 336.523,73.679 336.523 C 74.543 336.523,74.780 336.077,76.566 331.100 C 78.271 326.349,81.846 318.794,82.740 318.051 C 83.348 317.547,83.892 318.655,83.892 320.398 C 83.892 323.217,86.484 339.037,87.305 341.229 C 87.453 341.624,89.936 344.163,92.823 346.871 C 97.389 351.154,98.134 351.991,98.557 353.314 C 99.194 355.309,100.100 355.808,104.281 356.472 C 109.379 357.281,114.992 357.024,117.678 355.859 C 121.462 354.217,128.718 355.217,139.516 358.871 C 146.994 361.400,146.973 361.399,149.068 359.334 C 150.792 357.635,151.664 357.522,155.184 358.541 C 160.319 360.028,166.944 361.199,177.671 362.516 C 181.268 362.957,186.020 363.614,188.231 363.976 C 190.443 364.338,192.882 364.589,193.652 364.534 L 195.052 364.434 195.876 362.360 C 196.821 359.985,197.210 359.814,200.309 360.413 C 208.736 362.041,221.536 360.630,233.537 356.750 C 237.875 355.348,237.959 355.388,237.959 358.870 C 237.959 361.766,238.288 362.857,239.253 363.164 C 240.431 363.538,249.885 358.621,255.943 354.484 C 257.777 353.231,258.087 353.359,258.860 355.687 C 259.662 358.101,260.729 358.133,263.636 355.826 C 268.297 352.129,276.173 347.368,277.630 347.368 C 278.404 347.368,279.258 348.044,282.428 351.163 C 290.979 359.579,292.793 359.857,298.769 353.667 C 305.698 346.489,309.317 338.562,311.801 325.113 C 312.243 322.719,312.736 320.629,312.896 320.469 C 313.494 319.871,316.603 327.957,317.719 333.014 C 318.696 337.440,320.086 337.457,321.119 333.057 C 323.049 324.835,321.035 304.392,316.420 285.376 C 314.827 278.809,314.671 279.274,319.347 276.648 C 324.219 273.911,325.293 272.977,327.056 269.934 C 329.616 265.517,330.095 265.034,335.350 261.580 L 340.285 258.336 342.823 254.586 C 346.306 249.440,346.299 249.615,343.511 238.126 C 343.001 236.025,342.584 234.047,342.584 233.730 C 342.584 233.413,342.288 232.276,341.927 231.203 C 341.063 228.641,341.367 227.922,344.198 225.823 C 354.349 218.298,354.803 200.112,345.084 190.327 C 342.112 187.335,341.534 187.411,341.292 190.827 C 340.755 198.397,331.842 198.217,329.782 190.595 C 328.494 185.831,331.604 181.179,337.161 179.556 C 344.107 177.528,346.811 165.462,341.996 157.976 C 339.807 154.574,335.556 151.515,333.016 151.515 C 331.385 151.515,331.304 151.958,332.462 154.569 C 333.930 157.881,333.700 161.630,331.919 163.410 C 330.945 164.384,330.518 164.052,329.847 161.799 C 328.442 157.080,325.896 154.083,321.415 151.874 C 312.821 147.636,312.084 139.552,319.607 132.057 C 323.575 128.104,324.919 126.060,325.802 122.634 C 329.874 106.841,315.044 91.044,302.793 98.126 C 300.058 99.707,300.020 101.244,302.704 101.753 C 313.615 103.822,313.859 121.957,303.030 126.026 C 293.426 129.634,287.392 137.365,287.404 146.046 C 287.414 153.550,291.596 158.839,297.524 158.849 C 305.734 158.861,309.613 167.432,304.148 173.482 C 302.627 175.164,298.508 178.309,297.825 178.309 C 297.213 178.309,297.173 178.158,297.148 175.766 C 297.085 169.808,287.405 178.656,284.790 187.062 C 282.014 195.986,286.070 205.936,292.982 207.156 C 299.793 208.358,301.278 217.584,295.833 224.865 C 292.713 229.039,292.664 229.030,292.413 224.242 C 292.201 220.195,290.702 218.528,289.319 220.803 C 281.512 233.639,282.307 246.005,291.418 253.471 C 293.553 255.220,293.085 256.140,290.062 256.140 C 288.674 256.140,288.431 256.022,287.409 254.849 C 286.790 254.138,284.992 252.667,283.413 251.579 C 279.793 249.085,279.060 247.711,276.227 238.118 C 272.695 226.159,272.017 223.530,272.202 222.505 C 272.299 221.969,272.817 219.450,273.355 216.906 C 275.824 205.219,275.539 203.964,269.378 199.441 C 265.467 196.570,264.512 195.640,263.564 193.780 C 263.118 192.903,261.613 191.016,260.221 189.588 L 257.689 186.991 257.792 182.092 L 257.895 177.193 260.045 174.396 C 265.414 167.415,265.421 167.724,259.500 150.558 C 255.657 139.415,255.686 136.851,259.812 123.579 C 262.548 114.778,263.014 115.779,251.665 106.061 C 250.026 104.657,246.379 101.304,243.561 98.610 C 229.397 85.067,220.874 80.408,209.224 79.837 C 199.962 79.383,193.451 81.432,175.262 90.525 C 160.223 98.044,159.664 98.799,163.632 106.220 C 166.088 110.814,169.404 117.753,169.592 118.694 C 169.703 119.247,169.005 121.678,167.532 125.874 C 166.306 129.362,164.687 133.996,163.932 136.171 C 162.396 140.600,161.928 141.318,156.900 146.961 C 146.311 158.843,146.024 160.247,152.701 167.498 C 155.445 170.477,155.433 170.577,152.209 171.637 C 147.280 173.259,145.339 174.747,143.564 178.263 C 142.431 180.509,142.413 180.523,138.537 182.511 C 131.646 186.044,126.938 189.728,126.294 192.088 C 125.692 194.299,126.122 201.068,127.151 205.582 C 127.630 207.687,128.011 210.128,127.995 211.005 C 127.954 213.389,123.231 227.432,122.470 227.432 C 121.906 227.432,121.239 223.005,121.220 219.139 C 121.186 212.170,114.636 207.027,109.305 209.783 C 108.796 210.046,108.260 210.142,108.114 209.995 C 107.766 209.646,107.177 199.180,107.177 193.329 L 107.177 188.732 108.685 186.160 C 110.593 182.905,110.592 182.260,108.671 178.116 C 106.816 174.114,106.791 174.501,109.141 170.928 C 112.850 165.290,112.857 165.155,109.712 159.968 C 107.467 156.266,107.468 156.288,109.507 152.627 C 110.287 151.226,111.095 149.551,111.302 148.905 C 112.255 145.929,118.564 142.643,120.400 144.167 C 121.085 144.735,121.015 145.851,120.232 146.847 C 118.423 149.146,121.427 149.581,125.435 147.600 C 132.707 144.006,137.759 134.607,135.423 129.017 C 134.840 127.621,134.533 127.629,133.427 129.072 C 131.338 131.795,130.220 132.188,129.501 130.451 C 128.201 127.313,130.667 121.387,135.535 115.949 C 146.242 103.989,143.698 84.163,130.302 75.177 C 126.757 72.799,125.893 73.122,127.115 76.370 C 129.411 82.469,127.922 84.065,123.906 79.809 C 121.260 77.004,120.251 76.194,117.010 74.276 C 108.741 69.383,106.825 62.542,111.452 54.424 C 118.735 41.643,106.766 25.344,92.663 28.839 M121.881 54.311 C 120.535 55.003,119.829 56.304,119.679 58.368 C 119.348 62.954,125.022 64.651,127.120 60.594 C 129.041 56.878,125.394 52.505,121.881 54.311 M99.193 56.220 C 99.519 56.966,100.166 59.286,100.631 61.376 C 101.097 63.466,102.023 66.624,102.690 68.393 C 103.357 70.163,104.145 72.353,104.441 73.261 C 105.094 75.263,105.175 75.331,107.974 76.230 C 116.166 78.862,123.187 85.819,126.911 94.993 C 127.935 97.515,128.478 97.653,131.588 96.182 C 135.018 94.559,135.854 95.807,134.628 100.726 C 133.778 104.139,132.732 106.491,131.127 108.600 C 129.564 110.655,129.313 111.171,129.024 112.913 C 128.658 115.116,126.754 120.123,125.147 123.104 L 123.698 125.794 123.911 128.527 C 124.028 130.030,124.255 132.115,124.416 133.161 C 124.978 136.828,124.052 137.187,119.389 135.106 C 116.159 133.665,115.084 134.097,111.931 138.098 C 109.082 141.715,108.654 143.147,109.722 145.499 C 110.759 147.784,110.580 149.033,108.760 152.234 C 106.511 156.191,106.508 156.271,108.460 159.477 C 112.001 165.293,111.994 165.055,108.794 169.823 C 105.807 174.275,105.828 174.105,107.781 178.238 C 109.788 182.484,109.788 182.577,107.767 186.078 L 106.124 188.924 106.524 199.486 C 106.999 212.059,107.014 212.108,109.965 210.526 C 114.162 208.277,120.250 212.722,120.258 218.043 C 120.260 219.084,120.475 221.847,120.736 224.182 C 121.698 232.796,122.661 231.754,127.298 217.086 L 129.280 210.820 128.612 208.360 C 126.351 200.024,126.143 192.779,128.099 190.455 C 129.236 189.103,134.885 185.352,138.883 183.292 C 143.147 181.096,143.060 181.169,144.238 178.807 C 145.942 175.388,147.957 173.872,152.951 172.251 C 156.850 170.985,156.878 170.617,153.349 166.885 C 146.919 160.084,147.139 159.166,158.190 146.730 C 163.142 141.159,162.882 141.656,166.992 129.901 C 171.366 117.390,171.458 119.917,166.255 109.624 C 160.491 98.224,160.141 98.960,174.811 91.651 C 190.019 84.074,193.789 82.550,200.266 81.363 C 215.349 78.599,226.014 82.975,242.282 98.602 C 245.273 101.476,249.508 105.335,251.692 107.177 C 261.702 115.622,261.563 115.360,259.497 121.850 C 254.783 136.662,254.718 139.142,258.736 150.856 C 264.546 167.794,264.533 167.184,259.233 174.149 L 256.938 177.165 256.827 181.579 C 256.686 187.203,256.698 187.240,259.444 189.928 C 260.775 191.230,262.291 193.130,263.027 194.417 C 264.185 196.442,264.704 196.950,268.639 199.896 C 275.104 204.736,275.120 204.843,271.809 220.365 C 271.055 223.902,270.905 223.127,274.983 236.816 C 278.422 248.362,279.083 249.684,282.616 252.073 C 284.107 253.082,286.043 254.643,286.919 255.541 L 288.511 257.175 290.710 256.970 C 296.451 256.437,296.599 256.274,295.909 251.256 C 294.924 244.085,296.350 240.510,300.197 240.510 C 301.438 240.510,301.936 240.684,302.712 241.388 C 303.677 242.262,303.912 242.812,306.829 251.037 C 307.483 252.879,308.116 254.422,308.235 254.466 C 310.261 255.208,310.856 249.688,309.276 244.817 C 306.732 236.979,309.570 231.769,314.977 234.347 C 316.333 234.994,316.342 234.986,316.740 232.887 C 318.119 225.616,323.970 225.072,326.788 231.953 C 330.456 240.910,330.897 241.310,331.631 236.352 C 332.368 231.372,334.568 228.708,337.943 228.708 C 340.013 228.708,340.948 230.234,342.081 235.460 C 342.512 237.448,343.304 240.987,343.840 243.324 C 345.283 249.603,345.265 249.704,341.760 254.731 C 339.686 257.706,339.498 257.877,335.124 260.760 C 329.934 264.182,328.836 265.233,326.788 268.740 C 324.747 272.234,323.853 273.079,319.617 275.512 C 313.648 278.941,313.867 278.319,315.785 286.388 C 320.128 304.656,322.126 323.200,320.600 331.092 C 319.736 335.562,319.379 335.307,317.391 328.803 C 314.502 319.348,312.432 315.955,311.825 319.680 C 309.302 335.177,307.584 340.291,302.255 348.152 C 298.992 352.966,294.255 357.257,292.204 357.257 C 290.480 357.257,286.204 354.089,281.687 349.464 C 280.212 347.953,278.662 346.631,278.244 346.526 C 276.709 346.141,271.907 348.810,264.452 354.192 C 260.383 357.131,259.952 357.194,259.479 354.922 C 258.944 352.352,257.569 351.809,255.548 353.370 C 253.006 355.333,244.359 360.450,241.523 361.669 C 239.300 362.624,238.917 362.334,238.912 359.690 C 238.903 354.635,238.486 354.264,234.349 355.621 C 223.518 359.174,208.541 360.953,200.605 359.629 C 196.441 358.935,196.309 358.983,195.306 361.572 C 194.293 364.188,193.472 364.410,189.474 363.150 C 188.684 362.902,184.593 362.267,180.383 361.741 C 166.748 360.037,161.471 359.148,155.683 357.580 C 151.752 356.515,150.763 356.651,148.774 358.533 C 146.684 360.510,146.666 360.510,141.143 358.523 C 130.151 354.569,121.471 353.346,117.136 355.141 C 115.062 356.000,109.260 356.489,107.429 355.959 C 106.852 355.792,105.177 355.518,103.707 355.349 C 100.466 354.978,99.717 354.538,99.257 352.732 C 98.931 351.457,93.614 345.936,89.633 342.741 C 89.195 342.389,88.651 341.866,88.425 341.578 C 87.777 340.752,85.877 330.556,85.166 324.083 C 84.282 316.042,84.295 316.108,83.574 316.108 C 82.339 316.108,78.695 322.874,75.932 330.298 C 73.860 335.866,73.052 335.586,73.048 329.300 C 73.040 316.805,77.613 293.478,85.037 268.144 C 87.403 260.070,87.397 260.129,86.084 258.497 C 84.650 256.715,84.211 255.474,84.209 253.200 C 84.207 251.102,84.094 250.839,82.027 248.129 L 80.960 246.730 81.165 243.700 L 81.371 240.670 79.892 238.437 C 78.022 235.614,78.014 234.053,79.846 230.270 C 81.192 227.490,81.268 226.649,80.384 224.322 C 77.953 217.926,78.727 216.488,87.313 211.450 C 89.984 209.883,92.316 208.325,92.496 207.989 C 92.913 207.209,92.878 202.361,92.401 195.032 C 91.988 188.698,92.275 189.600,89.331 185.359 C 88.069 183.539,88.099 183.057,89.679 179.763 C 91.218 176.556,91.233 176.649,88.542 173.054 C 85.161 168.536,85.144 168.369,87.658 164.177 C 91.174 158.315,91.140 157.757,86.943 152.153 C 84.653 149.097,84.584 148.780,85.654 146.260 C 87.384 142.190,86.283 140.460,76.169 131.350 C 74.116 129.501,72.928 128.698,71.396 128.121 C 65.502 125.903,61.001 121.503,60.862 117.828 C 60.811 116.465,61.089 116.260,63.584 115.821 C 66.674 115.276,66.763 115.107,66.508 110.212 C 66.040 101.223,68.886 92.273,74.003 86.642 C 75.144 85.387,76.527 83.788,77.078 83.089 C 78.592 81.169,83.120 78.236,86.938 76.701 C 91.401 74.907,91.621 74.694,91.362 72.407 C 91.112 70.193,91.922 67.002,93.913 62.360 C 94.665 60.606,95.528 58.525,95.829 57.735 C 97.084 54.452,98.200 53.949,99.193 56.220 M94.896 87.223 C 77.573 90.640,72.001 111.991,85.557 123.010 C 94.469 130.253,108.547 127.943,114.506 118.260 C 117.351 113.638,117.722 111.812,117.313 104.466 C 116.708 93.584,105.675 85.098,94.896 87.223 M91.866 95.056 C 93.104 96.294,92.435 98.193,89.789 100.947 C 87.402 103.431,85.167 103.251,85.167 100.576 C 85.167 97.060,89.938 93.128,91.866 95.056 M100.310 95.818 C 104.604 98.632,105.940 108.498,102.807 114.256 C 99.620 120.111,94.873 119.424,92.236 112.726 C 88.749 103.870,94.433 91.967,100.310 95.818 M290.489 106.679 C 284.796 108.726,285.957 117.703,291.915 117.703 C 293.499 117.703,295.631 116.508,296.565 115.097 C 299.394 110.822,295.184 104.990,290.489 106.679 M213.001 131.583 C 209.603 134.982,215.155 140.697,219.363 138.131 C 221.662 136.729,221.844 134.652,219.810 133.041 C 216.953 130.778,214.361 130.223,213.001 131.583 M239.610 131.965 C 237.150 133.157,236.420 135.144,237.827 136.818 C 239.432 138.724,241.252 137.852,241.788 134.919 C 242.277 132.242,241.425 131.086,239.610 131.965 M329.618 138.095 C 327.745 139.237,327.503 141.873,329.113 143.605 C 331.678 146.364,335.816 143.529,334.600 139.845 C 333.876 137.651,331.636 136.864,329.618 138.095 M319.931 172.658 C 319.937 174.288,319.229 176.396,318.677 176.396 C 318.224 176.396,318.254 176.045,318.820 174.690 C 319.083 174.061,319.300 172.787,319.303 171.860 C 319.307 170.655,319.396 170.312,319.617 170.654 C 319.787 170.917,319.929 171.819,319.931 172.658 M310.874 187.769 C 308.869 195.507,310.609 199.628,317.388 203.191 C 321.096 205.141,323.892 207.637,325.031 210.014 C 327.635 215.449,324.483 224.809,321.317 221.045 C 319.741 219.173,318.546 219.365,314.520 222.135 C 310.962 224.582,308.820 223.391,311.191 220.285 C 312.546 218.511,312.804 217.713,313.092 214.419 C 313.485 209.914,312.513 207.465,308.953 203.987 C 304.355 199.496,304.439 191.144,309.127 186.759 C 311.132 184.884,311.558 185.130,310.874 187.769 M334.542 207.170 C 338.326 210.353,337.571 218.064,333.259 220.294 C 331.782 221.057,331.500 220.465,332.376 218.438 C 333.439 215.977,333.561 213.129,332.733 210.112 C 331.658 206.191,332.245 205.236,334.542 207.170 " stroke="none" fill="#8445c3" fill-rule="evenodd"></path></g></svg>