<svg xmlns="http://www.w3.org/2000/svg" viewBox="0.09 0.09 0.95 0.95" fill-rule="evenodd" clip-rule="evenodd">
  <defs>
    <radialGradient id="mine-fill" gradientUnits="userSpaceOnUse" cx="0.504771" cy="0.511833" r="0.154587" fx="0.504771" fy="0.511833">
      <stop offset="0" stop-color="#cccccc"/>
      <stop offset="0.129412" stop-color="#aaaaaa"/>
      <stop offset="0.290196" stop-color="#888888"/>
      <stop offset="0.439216" stop-color="#666666"/>
      <stop offset="0.74902" stop-color="#333333"/>
      <stop offset="1" stop-color="#000000"/>
    </radialGradient>
  </defs>
  <polygon fill="#000000" stroke="#000000" stroke-width="0.00324773" points="0.131584,0.593022 0.125187,0.565476 0.131584,0.537551 0.537551,0.537551 0.537551,0.131584 0.565118,0.126214 0.593022,0.131584 0.593022,0.537551 0.998993,0.537551 1.00304,0.565412 0.998993,0.593022 0.593022,0.593022 0.593022,0.998993 0.566636,1.00379 0.537551,0.998993 0.537551,0.593022"/>
  <circle fill="#000000" stroke="#000000" stroke-width="0.00324773" cx="0.347038" cy="0.344118" r="0.0439861"/>
  <polygon fill="#000000" stroke="#000000" stroke-width="0.00324773" points="0.298578,0.86844 0.274783,0.854917 0.262133,0.831995 0.528843,0.565289 0.262133,0.298583 0.277417,0.275576 0.298578,0.262137 0.565285,0.528843 0.831995,0.262133 0.855045,0.27584 0.86844,0.298578 0.60173,0.565289 0.86844,0.831999 0.855923,0.855726 0.831995,0.868445 0.565285,0.601734"/>
  <circle fill="#000000" stroke="#000000" stroke-width="0.00324773" cx="0.567575" cy="0.256911" r="0.0439861"/>
  <circle fill="url(#mine-fill)" cx="0.565289" cy="0.560246" r="0.302585"/>
  <circle fill="#000000" stroke="#000000" stroke-width="0.00324773" cx="0.774987" cy="0.355903" r="0.0439861"/>
  <circle fill="#000000" stroke="#000000" stroke-width="0.00324773" cx="0.354109" cy="0.774903" r="0.0439861"/>
  <circle fill="#000000" stroke="#000000" stroke-width="0.00324773" cx="0.774987" cy="0.774903" r="0.0439861"/>
</svg>
